PathFileType	4	(X/Y/Z)	/Users/niels/Desktop/University/Third Semester/Perception and Action/Exam/Gymnastics Motion Tracking/Code for Gym Tracking/Analyzed Data/Webcam_Backflip/id7_2_baseline_Sports2D/id7_2_baseline_Sports2D_px_person00.trc
DataRate	CameraRate	NumFrames	NumMarkers	Units	OrigDataRate	OrigDataStartFrame	OrigNumFrames
29.808917197452228	29.808917197452228	7	22	m	29.808917197452228	58	157
Frame#	Time	Hip			RHip			RKnee			RAnkle			RBigToe			RSmallToe			RHeel			LHip			LKnee			LAnkle			LBigToe			LSmallToe			LHeel			Neck			Head			Nose			RShoulder			RElbow			RWrist			LShoulder			LElbow			LWrist		
		X1	Y1	Z1	X2	Y2	Z2	X3	Y3	Z3	X4	Y4	Z4	X5	Y5	Z5	X6	Y6	Z6	X7	Y7	Z7	X8	Y8	Z8	X9	Y9	Z9	X10	Y10	Z10	X11	Y11	Z11	X12	Y12	Z12	X13	Y13	Z13	X14	Y14	Z14	X15	Y15	Z15	X16	Y16	Z16	X17	Y17	Z17	X18	Y18	Z18	X19	Y19	Z19	X20	Y20	Z20	X21	Y21	Z21	X22	Y22	Z22
58	1.9457264957264957	0.8762981320339066	-0.5592872986757852	0.0	0.8764552948480784	-0.5602100804608281	0.0	0.8917221886806517	-0.6729530942605286	0.0	0.8693626738314952	-0.7837336036408763	0.0	0.9026133278209832	-0.8065632689211363	0.0	0.8976797152166128	-0.8109257864852077	0.0	0.8591721997082681	-0.7979641552605674	0.0	0.8780278625525451	-0.5584429237082045	0.0	0.8877359305424576	-0.6714125118755405	0.0	0.8666116346050557	-0.7755325002090424	0.0	0.8986882447296832	-0.7947692000419165	0.0	0.8884147012567437	-0.7967220275599778	0.0	0.8539439410126948	-0.7911270771843044	0.0	1.0021911431786426	-0.5071538393781381	0.0	1.0734121047998069	-0.5084600756742297	0.0	1.0373188403433444	-0.5234071021415662	0.0	0.9984205415782663	-0.5100846346281285	0.0	1.0300249936951007	-0.5521728842460112	0.0	1.0801184974494806	-0.5771322594011584	0.0	0.9924214769483141	-0.4930178855506598	0.0	1.019732961372931	-0.4782571799661966	0.0	1.0542837133494303	-0.4611245771260115	0.0
59	1.9792735042735041	0.8718683614473886	-0.600305012422928	0.0	0.8738319692514581	-0.6016695597820151	0.0	0.9017981150034864	-0.7115102236545916	0.0	0.8820499203643827	-0.8206653394863829	0.0	0.9166003268145191	-0.8392073551542569	0.0	0.9112991945299109	-0.8445244426682122	0.0	0.8727893924440817	-0.8340570647209747	0.0	0.8722945300166872	-0.5990871347469499	0.0	0.8947033225809358	-0.7100788092152623	0.0	0.8766700258577003	-0.8120103741475874	0.0	0.908479136228194	-0.8265694142886286	0.0	0.896795776024593	-0.8289600069000957	0.0	0.8655695780426856	-0.826884069739807	0.0	0.9898188383980564	-0.5250846784477035	0.0	1.060133661013063	-0.5149413456535291	0.0	1.0284136156650403	-0.5353255067711082	0.0	0.9866283552313151	-0.5303248416567151	0.0	1.0310224220836528	-0.564156488726313	0.0	1.088178393847125	-0.5732131947502129	0.0	0.9779546462952965	-0.5133211273096269	0.0	1.014941968964015	-0.4944404331982348	0.0	1.048054576079	-0.4656382057485662	0.0
60	2.0128205128205128	0.8685415129194789	-0.6335345836672184	0.0	0.8722357081299138	-0.635195960212993	0.0	0.9113641408833013	-0.7412569441854012	0.0	0.8888004818967525	-0.8459075825849401	0.0	0.9253539730745663	-0.8624256640474156	0.0	0.9188590971363747	-0.8677799469154029	0.0	0.8797361307832441	-0.8576280847657259	0.0	0.8675171641911826	-0.6322342071234749	0.0	0.9004655817045787	-0.7402758570509584	0.0	0.8812279404969642	-0.8375906978103375	0.0	0.9131483472626396	-0.8501966903249296	0.0	0.9009504068587965	-0.8519867855322552	0.0	0.8710246598579396	-0.8506600739036713	0.0	0.9778849929237063	-0.5414563198454615	0.0	1.0455277493844508	-0.5211327055566675	0.0	1.0193550416008237	-0.5461262279622391	0.0	0.974838395925368	-0.5483726101374471	0.0	1.0273173407194043	-0.5737533953979483	0.0	1.0875544671125263	-0.5681802043456833	0.0	0.9641188484582746	-0.5325557508837168	0.0	1.0070073503275379	-0.5156248627950759	0.0	1.0390915266617575	-0.48080257256540954	0.0
61	2.046367521367521	0.8657728237451636	-0.6554822493254411	0.0	0.8708795423559842	-0.6573520534469001	0.0	0.9200105245721122	-0.7589368118411448	0.0	0.8912942785321127	-0.858350658430912	0.0	0.9300239069724093	-0.8746448322095796	0.0	0.9219694926336198	-0.8793012110113397	0.0	0.881950746043886	-0.8684741636655355	0.0	0.863427119616149	-0.6543623755801572	0.0	0.9050401542872862	-0.7585876030507291	0.0	0.8822388993216075	-0.8511244944990533	0.0	0.9147224551273109	-0.864129333372129	0.0	0.9028372715729726	-0.8643493264294568	0.0	0.8723671093585923	-0.8622408022820266	0.0	0.9675265071485044	-0.5532003613144625	0.0	1.0318433062840446	-0.52485927772273	0.0	1.0111254803608793	-0.5535414645791008	0.0	0.964163652782714	-0.5608560304895347	0.0	1.0200250133075823	-0.5800111833980186	0.0	1.0807943561741795	-0.5642153782120859	0.0	0.9524430311977065	-0.5470088896971331	0.0	0.9978173775973788	-0.5386788994344582	0.0	1.0297426394582696	-0.5036863688234988	0.0
62	2.0799145299145296	0.8631992753230476	-0.6642812636679315	0.0	0.8692177459910085	-0.6662245774630197	0.0	0.9273177246619188	-0.7628741561213433	0.0	0.8912676259339616	-0.8580521502686151	0.0	0.931332020858286	-0.8749827925256369	0.0	0.9220674413085088	-0.8785885251436816	0.0	0.8814397732693147	-0.8671867233937703	0.0	0.8599151166316725	-0.6634497467965269	0.0	0.908725908244109	-0.7632054438613741	0.0	0.8816308343354899	-0.8523881159301027	0.0	0.9148620449490467	-0.8668178332288149	0.0	0.9037075521212461	-0.8648516071786267	0.0	0.8716395629701937	-0.8620281743336334	0.0	0.9594015521178466	-0.5575099390966224	0.0	1.0209820288228288	-0.5238922982879006	0.0	1.004225901110742	-0.5553000854672931	0.0	0.9554473491791241	-0.5648561885237341	0.0	1.0105271138119722	-0.5813652910363283	0.0	1.07112941513471	-0.5616133494211731	0.0	0.9437878345623651	-0.5533524620137558	0.0	0.987752909628561	-0.5588329490585942	0.0	1.0205323465535225	-0.5294702732903875	0.0
63	2.1134615384615385	0.8607371031800101	-0.6599677191540302	0.0	0.8671200214381539	-0.6617571955207439	0.0	0.9328717040747778	-0.7534896130089033	0.0	0.8901328570473883	-0.8464180270676445	0.0	0.9301553118311251	-0.8641693051298979	0.0	0.9204664600734803	-0.866775695602441	0.0	0.8797393747302937	-0.8552397809290223	0.0	0.8570358291375819	-0.6593535513178528	0.0	0.9116829070501938	-0.7544320892230368	0.0	0.8806623398440003	-0.8422898385866092	0.0	0.9147513884482595	-0.857936603517033	0.0	0.9042509066895238	-0.8536432551104388	0.0	0.8702478584480836	-0.8511096568070687	0.0	0.9536491371028102	-0.5525698354077494	0.0	1.013796155052933	-0.5164566022398517	0.0	0.9988052595594991	-0.5495998152360512	0.0	0.9491224414703796	-0.5586456442266011	0.0	1.0001612006947609	-0.5761630805062246	0.0	1.0612050789216614	-0.5585944051424615	0.0	0.9381891634836333	-0.5495684867112727	0.0	0.9761771233508164	-0.5711572718093713	0.0	1.010618342716444	-0.5523942539979352	0.0
64	2.147008547008547	0.8585754940384009	-0.6442476686911339	0.0	0.8648167995976939	-0.6456342002519186	0.0	0.9364642672962056	-0.7332366083339759	0.0	0.8890230829076444	-0.8259646281180318	0.0	0.9277974632775234	-0.8448738950928967	0.0	0.9184025841137566	-0.8467203824988241	0.0	0.8779757704078992	-0.834945065609553	0.0	0.8549509887943408	-0.6437216184993697	0.0	0.9136803130771001	-0.7346710155102524	0.0	0.879921351199249	-0.822946842488505	0.0	0.9149752818602482	-0.8394324029855367	0.0	0.904787919498261	-0.833076565174222	0.0	0.8689872213080327	-0.8314655243048489	0.0	0.9499279119499513	-0.5379923291688345	0.0	1.0098491482306367	-0.5016034875236424	0.0	0.9947735454449601	-0.535561997839661	0.0	0.9449923917175688	-0.5421026778520135	0.0	0.9900696066449165	-0.5632308826886869	0.0	1.0523769147551691	-0.5520095100109634	0.0	0.9350629025795957	-0.535473859619472	0.0	0.9633763794834894	-0.5723621239297695	0.0	0.9999961699606953	-0.566802730555394	0.0
